<svg xmlns="http://www.w3.org/2000/svg" enable-background="new 0 0 64 64" viewBox="0 0 64 64" id="crowdfunding">
  <path d="M32,43.86c-6.54,0-11.86-5.32-11.86-11.86S25.46,20.14,32,20.14S43.86,25.46,43.86,32S38.54,43.86,32,43.86z M32,21.12
					C26,21.12,21.12,26,21.12,32S26,42.88,32,42.88S42.88,38,42.88,32S38,21.12,32,21.12z"></path>
  <path d="M32,46.36c-7.92,0-14.36-6.44-14.36-14.36S24.08,17.64,32,17.64S46.36,24.08,46.36,32S39.92,46.36,32,46.36z M32,18.63
					c-7.37,0-13.37,6-13.37,13.37s6,13.37,13.37,13.37s13.37-6,13.37-13.37S39.37,18.63,32,18.63z"></path>
  <g>
    <path d="M32,32.49c-0.01,0-0.03,0-0.04,0c-2.1-0.16-3.57-1.64-3.57-3.61c0-1.99,1.62-3.61,3.61-3.61s3.61,1.62,3.61,3.61
						c0,0.27-0.22,0.49-0.49,0.49c-0.27,0-0.49-0.22-0.49-0.49c0-1.45-1.18-2.62-2.62-2.62c-1.45,0-2.62,1.18-2.62,2.62
						c0,1.45,1.07,2.5,2.66,2.62c0.27,0.02,0.47,0.26,0.45,0.53C32.47,32.3,32.26,32.49,32,32.49z"></path>
    <path d="M32,38.72c-1.99,0-3.61-1.62-3.61-3.61c0-0.27,0.22-0.49,0.49-0.49s0.49,0.22,0.49,0.49c0,1.45,1.18,2.62,2.62,2.62
						c1.45,0,2.62-1.18,2.62-2.62c0-1.39-1.1-2.46-2.67-2.63c-0.27-0.03-0.47-0.27-0.44-0.54c0.03-0.27,0.27-0.46,0.54-0.44
						c2.1,0.21,3.56,1.7,3.56,3.61C35.61,37.11,33.99,38.72,32,38.72z"></path>
    <path d="M32,40.45c-0.27,0-0.49-0.22-0.49-0.49v-1.73c0-0.27,0.22-0.49,0.49-0.49c0.27,0,0.49,0.22,0.49,0.49v1.73
					C32.49,40.23,32.27,40.45,32,40.45z"></path>
    <g>
      <path d="M32,26.26c-0.27,0-0.49-0.22-0.49-0.49v-1.73c0-0.27,0.22-0.49,0.49-0.49c0.27,0,0.49,0.22,0.49,0.49v1.73
					C32.49,26.04,32.27,26.26,32,26.26z"></path>
    </g>
  </g>
  <g>
    <path d="M19.12 9.03c-2.47 0-4.48-2.01-4.48-4.48 0-2.47 2.01-4.48 4.48-4.48s4.48 2.01 4.48 4.48C23.6 7.02 21.59 9.03 19.12 9.03zM19.12 1.04c-1.93 0-3.5 1.57-3.5 3.5 0 1.93 1.57 3.5 3.5 3.5s3.5-1.57 3.5-3.5C22.62 2.61 21.05 1.04 19.12 1.04zM31.94 9.03c-2.47 0-4.48-2.01-4.48-4.48 0-2.47 2.01-4.48 4.48-4.48s4.48 2.01 4.48 4.48C36.42 7.02 34.41 9.03 31.94 9.03zM31.94 1.04c-1.93 0-3.5 1.57-3.5 3.5 0 1.93 1.57 3.5 3.5 3.5s3.5-1.57 3.5-3.5C35.44 2.61 33.87 1.04 31.94 1.04zM44.84 9.03c-2.47 0-4.48-2.01-4.48-4.48 0-2.47 2.01-4.48 4.48-4.48 2.47 0 4.48 2.01 4.48 4.48C49.32 7.02 47.31 9.03 44.84 9.03zM44.84 1.04c-1.93 0-3.5 1.57-3.5 3.5 0 1.93 1.57 3.5 3.5 3.5 1.93 0 3.5-1.57 3.5-3.5C48.34 2.61 46.77 1.04 44.84 1.04zM19.12 63.94c-2.47 0-4.48-2.01-4.48-4.48s2.01-4.48 4.48-4.48 4.48 2.01 4.48 4.48S21.59 63.94 19.12 63.94zM19.12 55.96c-1.93 0-3.5 1.57-3.5 3.5 0 1.93 1.57 3.5 3.5 3.5s3.5-1.57 3.5-3.5C22.62 57.53 21.05 55.96 19.12 55.96zM31.94 63.94c-2.47 0-4.48-2.01-4.48-4.48s2.01-4.48 4.48-4.48 4.48 2.01 4.48 4.48S34.41 63.94 31.94 63.94zM31.94 55.96c-1.93 0-3.5 1.57-3.5 3.5 0 1.93 1.57 3.5 3.5 3.5s3.5-1.57 3.5-3.5C35.44 57.53 33.87 55.96 31.94 55.96zM44.84 63.94c-2.47 0-4.48-2.01-4.48-4.48s2.01-4.48 4.48-4.48c2.47 0 4.48 2.01 4.48 4.48S47.31 63.94 44.84 63.94zM44.84 55.96c-1.93 0-3.5 1.57-3.5 3.5 0 1.93 1.57 3.5 3.5 3.5 1.93 0 3.5-1.57 3.5-3.5C48.34 57.53 46.77 55.96 44.84 55.96zM59.52 23.59c-2.47 0-4.48-2.01-4.48-4.48 0-2.47 2.01-4.48 4.48-4.48S64 16.64 64 19.11C64 21.58 61.99 23.59 59.52 23.59zM59.52 15.61c-1.93 0-3.5 1.57-3.5 3.5 0 1.93 1.57 3.5 3.5 3.5 1.93 0 3.5-1.57 3.5-3.5C63.02 17.18 61.45 15.61 59.52 15.61zM59.52 36.41c-2.47 0-4.48-2.01-4.48-4.48s2.01-4.48 4.48-4.48S64 29.46 64 31.93 61.99 36.41 59.52 36.41zM59.52 28.43c-1.93 0-3.5 1.57-3.5 3.5s1.57 3.5 3.5 3.5c1.93 0 3.5-1.57 3.5-3.5S61.45 28.43 59.52 28.43zM59.52 49.31c-2.47 0-4.48-2.01-4.48-4.48 0-2.47 2.01-4.48 4.48-4.48S64 42.35 64 44.83C64 47.3 61.99 49.31 59.52 49.31zM59.52 41.33c-1.93 0-3.5 1.57-3.5 3.5 0 1.93 1.57 3.5 3.5 3.5 1.93 0 3.5-1.57 3.5-3.5C63.02 42.9 61.45 41.33 59.52 41.33zM4.48 23.59C2.01 23.59 0 21.58 0 19.11c0-2.47 2.01-4.48 4.48-4.48s4.48 2.01 4.48 4.48C8.97 21.58 6.96 23.59 4.48 23.59zM4.48 15.61c-1.93 0-3.5 1.57-3.5 3.5 0 1.93 1.57 3.5 3.5 3.5s3.5-1.57 3.5-3.5C7.98 17.18 6.41 15.61 4.48 15.61zM4.48 36.41C2.01 36.41 0 34.4 0 31.93s2.01-4.48 4.48-4.48 4.48 2.01 4.48 4.48S6.96 36.41 4.48 36.41zM4.48 28.43c-1.93 0-3.5 1.57-3.5 3.5s1.57 3.5 3.5 3.5 3.5-1.57 3.5-3.5S6.41 28.43 4.48 28.43zM4.48 49.31C2.01 49.31 0 47.3 0 44.83c0-2.47 2.01-4.48 4.48-4.48s4.48 2.01 4.48 4.48C8.97 47.3 6.96 49.31 4.48 49.31zM4.48 41.33c-1.93 0-3.5 1.57-3.5 3.5 0 1.93 1.57 3.5 3.5 3.5s3.5-1.57 3.5-3.5C7.98 42.9 6.41 41.33 4.48 41.33z"></path>
    <path d="M24.12 16.95c-.13 0-.25-.05-.35-.14l-5-5c-.09-.09-.14-.22-.14-.35V8.53c0-.27.22-.49.49-.49s.49.22.49.49v2.72l4.85 4.85c.19.19.19.5 0 .7C24.37 16.9 24.24 16.95 24.12 16.95zM31.94 13.36c-.27 0-.49-.22-.49-.49V8.53c0-.27.22-.49.49-.49.27 0 .49.22.49.49v4.34C32.43 13.14 32.21 13.36 31.94 13.36zM39.8 16.87c-.13 0-.25-.05-.35-.14-.19-.19-.19-.5 0-.7l4.89-4.89v-2.6c0-.27.22-.49.49-.49.27 0 .49.22.49.49v2.81c0 .13-.05.26-.14.35l-5.04 5.04C40.05 16.82 39.92 16.87 39.8 16.87zM47.44 24.63c-.13 0-.25-.05-.35-.14-.19-.19-.19-.5 0-.7l5.02-5.02c.09-.09.22-.14.35-.14h3.06c.27 0 .49.22.49.49s-.22.49-.49.49h-2.86l-4.88 4.88C47.69 24.58 47.56 24.63 47.44 24.63z"></path>
    <g>
      <path d="M55.53,32.42H51c-0.27,0-0.49-0.22-0.49-0.49s0.22-0.49,0.49-0.49h4.52c0.27,0,0.49,0.22,0.49,0.49
				S55.8,32.42,55.53,32.42z"></path>
    </g>
    <g>
      <path d="M55.53,45.32h-3.05c-0.13,0-0.26-0.05-0.35-0.14l-5.06-5.06c-0.19-0.19-0.19-0.5,0-0.7c0.19-0.19,0.5-0.19,0.7,0
				l4.92,4.92h2.84c0.27,0,0.49,0.22,0.49,0.49C56.02,45.1,55.8,45.32,55.53,45.32z"></path>
    </g>
    <g>
      <path d="M44.84,55.96c-0.27,0-0.49-0.22-0.49-0.49v-2.63l-5.05-5.05c-0.19-0.19-0.19-0.5,0-0.7s0.5-0.19,0.7,0l5.19,5.19
				c0.09,0.09,0.14,0.22,0.14,0.35v2.84C45.33,55.74,45.11,55.96,44.84,55.96z"></path>
    </g>
    <g>
      <path d="M31.94,55.96c-0.27,0-0.49-0.22-0.49-0.49v-4.57c0-0.27,0.22-0.49,0.49-0.49c0.27,0,0.49,0.22,0.49,0.49v4.57
				C32.43,55.74,32.21,55.96,31.94,55.96z"></path>
    </g>
    <g>
      <path d="M19.12,55.96c-0.27,0-0.49-0.22-0.49-0.49v-2.82c0-0.13,0.05-0.26,0.14-0.35l5.11-5.11c0.19-0.19,0.5-0.19,0.7,0
				c0.19,0.19,0.19,0.5,0,0.7l-4.96,4.96v2.61C19.61,55.74,19.39,55.96,19.12,55.96z"></path>
    </g>
    <g>
      <path d="M11.59,45.32H8.48c-0.27,0-0.49-0.22-0.49-0.49c0-0.27,0.22-0.49,0.49-0.49h2.91l4.93-4.93c0.19-0.19,0.5-0.19,0.7,0
				c0.19,0.19,0.19,0.5,0,0.7l-5.08,5.07C11.85,45.27,11.72,45.32,11.59,45.32z"></path>
    </g>
    <g>
      <path d="M13.55,32.42H8.48c-0.27,0-0.49-0.22-0.49-0.49s0.22-0.49,0.49-0.49h5.07c0.27,0,0.49,0.22,0.49,0.49
				S13.82,32.42,13.55,32.42z"></path>
    </g>
    <g>
      <path d="M16.55,24.82c-0.13,0-0.25-0.05-0.35-0.14l-5.07-5.07H8.48c-0.27,0-0.49-0.22-0.49-0.49s0.22-0.49,0.49-0.49h2.85
				c0.13,0,0.26,0.05,0.35,0.14l5.22,5.22c0.19,0.19,0.19,0.5,0,0.7C16.8,24.77,16.67,24.82,16.55,24.82z"></path>
    </g>
  </g>
</svg>
